<svg version="1.2" xmlns="http://www.w3.org/2000/svg" viewBox="0 0 906 531" width="906" height="531"><style>.a{fill:none;stroke:#000;stroke-linecap:round;stroke-miterlimit:10;stroke-width:11;stroke-dasharray:}.b{fill:none;stroke:#000;stroke-linecap:round;stroke-linejoin:round;stroke-width:15;stroke-dasharray:}</style><path fill-rule="evenodd" class="a" d="m68.5 96.6c16.4 0 29.7-13.4 29.7-29.9 0 16.5 12.9 29.9 29.7 29.9-16.4 0-29.7 13.4-29.7 29.8 0-16.4-13.3-29.8-29.7-29.8z"/><path fill-rule="evenodd" class="b" d="m34.1 32.5h128.2v128.2h-128.2z"/><path  d="m235.2 307.9q-15.4 0.1-28.5-5-12.9-5.3-22.4-14.6-9.6-9.6-14.8-22.5-5.1-13-5.1-28.6 0-15.2 5.4-28.1 5.5-12.9 15.1-22.2 9.7-9.6 22.8-14.9 13.2-5.2 28.8-5.2 9.8 0 19.1 2.5 9.4 2.5 17.4 7.6 8.2 4.9 14 11.7l-20.2 23.2q-4.1-4.3-8.8-7.4-4.5-3.3-10-5.1-5.4-1.7-11.7-1.7-7.8 0-14.8 2.9-6.8 2.7-12.1 8-5 5.1-8 12.5-2.9 7.4-2.9 16.6 0 8.9 2.9 16.3 3 7.3 8.2 12.5 5.3 5.3 12.7 8 7.6 2.7 16.8 2.7 6.2 0 11.9-1.7 5.6-1.8 10.3-4.7 4.9-3.1 8.6-7l16 25.3q-4.9 5.5-13.1 9.8-8 4.3-17.9 6.8-9.8 2.4-19.7 2.4zm101.4-2h-31.2v-144.3h31.2zm64.1 1.8q-13 0-23.4-6.9-10.1-7-16.2-19.1-6-12.3-6-27.7 0-15.8 6-27.9 6.1-12 16.6-18.9 10.5-7 24-7 7.4 0 13.5 2.2 6.2 2.1 10.9 6 4.7 3.7 8 8.8 3.3 4.8 4.8 10.5l-6.4-0.8v-24.5h31v103.5h-31.6v-25l7-0.2q-1.5 5.5-5 10.4-3.5 4.9-8.6 8.6-5.1 3.7-11.3 5.8-6.3 2.2-13.3 2.2zm8.6-26.4q7.2 0 12.5-3.3 5.3-3.3 8.2-9.3 2.9-6.3 2.9-14.7 0-8.4-2.9-14.4-2.9-6.2-8.2-9.6-5.3-3.5-12.5-3.5-7 0-12.3 3.5-5 3.4-8 9.6-2.9 6-2.9 14.4 0 8.4 2.9 14.7 3 6 8 9.3 5.3 3.3 12.3 3.3zm113.1 24.6h-31.4v-103.5h29.7l1.3 33.7-5.8-6.4q2.3-8.4 7.6-15.1 5.4-6.6 12.6-10.5 7.3-3.9 15.5-3.9 3.5 0 6.4 0.6 3.1 0.6 5.6 1.4l-8.5 34.5q-2.2-1.4-5.9-2.2-3.5-0.9-7.4-0.9-4.3 0-8 1.5-3.7 1.4-6.2 4.1-2.6 2.7-4.1 6.4-1.4 3.8-1.4 8.4zm90.3 0h-31.2v-103.5h31.2zm-15.6-124q-8.8 0-13.9-4.1-4.8-4.3-4.8-12.1 0-7 5-11.5 5.1-4.5 13.7-4.5 8.8 0 13.6 4.3 4.9 4.1 4.9 11.7 0 7.2-5.1 11.7-4.8 4.5-13.4 4.5zm84.6 124h-31.2v-129.7h31.2zm20.1-76.2h-69.6v-27.3h69.6zm61.8 121.1h-31l23.6-55.6 0.4 16-49.9-108.8h35.3l21.8 52q1.8 3.9 3.3 8.4 1.6 4.5 2.4 8.6l-4.3 2.5q1.2-2.9 2.5-7.2 1.6-4.5 3.3-9.5l19.1-54.8h35.5l-44 103.5z"/><path  d="m238.2 475.9q-15.4 0.1-28.5-5-12.9-5.3-22.4-14.6-9.6-9.6-14.8-22.5-5.1-13-5.1-28.6 0-15.2 5.4-28.1 5.5-12.9 15.1-22.2 9.7-9.6 22.8-14.9 13.2-5.2 28.8-5.2 9.8 0 19.1 2.5 9.4 2.5 17.4 7.6 8.2 4.9 14 11.7l-20.2 23.2q-4.1-4.3-8.8-7.4-4.5-3.3-10-5.1-5.4-1.7-11.7-1.7-7.8 0-14.8 2.9-6.8 2.7-12.1 8-5 5.1-8 12.5-2.9 7.4-2.9 16.6 0 8.9 2.9 16.3 3 7.3 8.2 12.5 5.3 5.3 12.7 8 7.6 2.7 16.8 2.7 6.2 0 11.9-1.7 5.6-1.8 10.3-4.7 4.9-3.1 8.6-7l16 25.3q-4.9 5.5-13.1 9.8-8 4.3-17.9 6.8-9.8 2.4-19.7 2.4zm108.2-0.2q-13.1 0-23.4-6.9-10.1-7-16.2-19.1-6-12.3-6-27.7 0-15.8 6-27.9 6.1-12 16.6-18.9 10.5-7 24-7 7.4 0 13.4 2.2 6.3 2.1 10.9 6 4.7 3.7 8 8.8 3.4 4.8 4.9 10.5l-6.4-0.8v-24.5h31v103.5h-31.6v-25l7-0.2q-1.5 5.5-5.1 10.4-3.5 4.9-8.5 8.6-5.1 3.7-11.3 5.8-6.3 2.2-13.3 2.2zm8.6-26.4q7.2 0 12.5-3.3 5.2-3.3 8.1-9.3 3-6.3 3-14.7 0-8.4-3-14.4-2.9-6.2-8.1-9.6-5.3-3.5-12.5-3.5-7 0-12.3 3.5-5.1 3.4-8 9.6-2.9 6-2.9 14.4 0 8.4 2.9 14.7 2.9 6 8 9.3 5.3 3.3 12.3 3.3zm81.7 24.6v-103.5h29.6l1 21-6.2 2.4q2.1-7.1 7.6-12.7 5.6-5.9 13.4-9.4 7.8-3.5 16.4-3.5 11.7 0 19.7 4.9 8 4.7 12.1 14.2 4.1 9.4 4.1 23v63.6h-31.4v-61q0-6.3-1.8-10.4-1.7-4.1-5.4-6-3.5-2.2-8.8-2-4.1 0-7.6 1.4-3.5 1.2-6.1 3.7-2.5 2.3-4.1 5.5-1.3 3.1-1.3 6.8v62h-15.4q-5.5 0-9.4 0-3.9 0-6.4 0zm180.2 0h-24.6l-43.3-103.5h34.5l25.8 77.4-7.6 0.7 26.5-78.1h34.1zm96.9 1.7q-13.1 0-23.4-6.8-10.1-7-16.2-19.1-6-12.3-6-27.7 0-15.8 6-27.9 6.1-12.1 16.6-18.9 10.5-7 24-7 7.4 0 13.4 2.1 6.3 2.2 11 6.1 4.6 3.7 8 8.7 3.3 4.9 4.8 10.6l-6.4-0.8v-24.6h31v103.6h-31.6v-25l7-0.2q-1.5 5.5-5 10.3-3.5 4.9-8.6 8.6-5.1 3.7-11.3 5.9-6.3 2.1-13.3 2.1zm8.6-26.3q7.2 0 12.5-3.3 5.2-3.3 8.2-9.4 2.9-6.2 2.9-14.6 0-8.4-2.9-14.4-3-6.3-8.2-9.6-5.3-3.5-12.5-3.5-7 0-12.3 3.5-5.1 3.3-8 9.6-2.9 6-2.9 14.4 0 8.4 2.9 14.6 2.9 6.1 8 9.4 5.3 3.3 12.3 3.3zm116.6 26.5q-15.2 0-26.9-4.9-11.5-4.8-18.3-13l18.9-16.4q6 6 13.6 9 7.6 2.7 14.5 2.7 2.7 0 4.8-0.6 2.2-0.6 3.5-1.6 1.6-1.1 2.4-2.5 0.8-1.6 0.8-3.5 0-3.9-3.5-6-1.8-1-5.9-2.4-4.1-1.4-10.5-3.1-9.2-2.3-16-5.5-6.6-3.3-10.9-7.6-3.9-4.1-6.1-8.9-2.1-5.1-2.1-11.4 0-7.2 3.3-13 3.5-5.9 9.2-10.2 5.8-4.2 13.2-6.4 7.6-2.3 15.6-2.3 8.6 0 16.4 1.9 7.8 2 14.4 5.5 6.8 3.5 12.1 8.4l-16.4 18.3q-3.5-3.3-8-5.9-4.3-2.7-8.9-4.2-4.7-1.6-8.6-1.6-2.9 0-5.3 0.6-2.1 0.4-3.7 1.5-1.5 1-2.3 2.6-0.8 1.3-0.8 3.3 0 1.9 1 3.7 1.1 1.7 3.1 2.9 1.9 1.2 6.2 2.7 4.3 1.4 11.7 3.6 9.2 2.5 15.8 5.6 6.7 3.1 10.6 7.4 3.1 3.3 4.6 7.8 1.6 4.3 1.6 9.4 0 9.9-5.7 17.7-5.4 7.6-15.2 12.1-9.7 4.3-22.2 4.3z"/></svg>