<svg xmlns="http://www.w3.org/2000/svg" version="1.2" viewBox="0 0 1621 290">
  <path d="M90.5 150.9c22.7 0 41.1-18.4 41.1-41.2 0 22.8 17.8 41.2 41 41.2-22.7 0-41 18.5-41 41.2-.1-22.7-18.4-41.2-41.1-41.2z" style="fill:none;stroke:currentColor;stroke-linecap:round;stroke-miterlimit:10;stroke-width:17"/>
  <path d="M43.1 62.5H220v176.9H43.1z" style="fill:none;stroke:currentColor;stroke-linecap:round;stroke-linejoin:round;stroke-width:20"/>
  <path d="M345.9 243.8q-14 0-25.8-4.6-11.7-4.8-20.4-13.3-8.7-8.7-13.5-20.4-4.6-11.9-4.6-26.1 0-13.8 5-25.5 4.9-11.7 13.6-20.2 8.9-8.7 20.8-13.4 12-4.8 26.2-4.8 8.8 0 17.4 2.3 8.5 2.3 15.7 6.9 7.5 4.4 12.8 10.6l-18.4 21.1q-3.8-3.9-8-6.7-4.1-3-9.1-4.6-4.9-1.6-10.6-1.6-7.1 0-13.5 2.6-6.2 2.5-10.9 7.3-4.7 4.6-7.3 11.3-2.7 6.8-2.7 15.1 0 8.2 2.7 14.9 2.6 6.5 7.4 11.3 4.8 4.8 11.5 7.3 7 2.5 15.3 2.5 5.7 0 10.8-1.6 5.1-1.6 9.4-4.3 4.4-2.8 7.8-6.4l14.5 23.1q-4.4 4.9-11.9 8.8-7.2 3.9-16.3 6.2-8.8 2.2-17.9 2.2zm92.2-1.8h-28.4V110.9h28.4zm58.3 1.6q-11.9 0-21.3-6.2-9.2-6.4-14.7-17.4-5.5-11.2-5.5-25.2 0-14.3 5.5-25.3t15.1-17.2q9.5-6.4 21.8-6.4 6.7 0 12.2 2 5.7 1.9 9.9 5.5 4.3 3.3 7.3 7.9 3 4.5 4.4 9.6l-5.8-.7v-22.3h28.1V242h-28.7v-22.7l6.4-.2q-1.4 5-4.6 9.4-3.2 4.4-7.8 7.8-4.6 3.4-10.3 5.3-5.6 2-12 2zm7.8-24q6.5 0 11.3-3 4.8-3 7.5-8.5 2.6-5.6 2.6-13.3 0-7.6-2.6-13.1-2.7-5.6-7.5-8.7-4.8-3.2-11.3-3.2-6.4 0-11.2 3.2-4.6 3.1-7.2 8.7-2.7 5.5-2.7 13.1 0 7.7 2.7 13.3 2.6 5.5 7.2 8.5 4.8 3 11.2 3zM607 242h-28.6v-94.1h27l1.2 30.6-5.3-5.8q2.1-7.6 6.9-13.7 5-6 11.5-9.5 6.6-3.6 14-3.6 3.2 0 5.9.6 2.8.5 5.1 1.2l-7.8 31.4q-1.9-1.3-5.3-2-3.2-.9-6.7-.9-3.9 0-7.3 1.4-3.4 1.3-5.7 3.8-2.3 2.4-3.7 5.8-1.2 3.4-1.2 7.6zm82 0h-28.3v-94.1H689zm-14.2-112.7q-7.9 0-12.5-3.7-4.5-3.9-4.5-11 0-6.3 4.6-10.4 4.6-4.1 12.4-4.1 8 0 12.4 3.9 4.5 3.7 4.5 10.6 0 6.6-4.6 10.7-4.5 4-12.3 4zM751.7 242h-28.3V124.2h28.3zm18.3-69.3h-63.3v-24.8H770zm56.2 110H798l21.4-50.5.4 14.6-45.4-98.9h32.1l19.8 47.3q1.6 3.6 3.1 7.6 1.4 4.1 2.1 7.8l-3.9 2.3q1-2.6 2.3-6.5 1.4-4.1 3-8.7l17.4-49.8h32.2l-40 94.1zM988.9 243.8q-14 0-25.8-4.6-11.7-4.8-20.4-13.3-8.7-8.7-13.5-20.4-4.6-11.9-4.6-26.1 0-13.8 5-25.5 4.9-11.7 13.6-20.2 8.9-8.7 20.8-13.4 12-4.8 26.2-4.8 8.8 0 17.4 2.3 8.5 2.3 15.7 6.9 7.5 4.4 12.8 10.6l-18.4 21.1q-3.8-3.9-8-6.7-4.1-3-9.1-4.6-4.9-1.6-10.6-1.6-7.1 0-13.5 2.6-6.2 2.5-10.9 7.3-4.7 4.6-7.3 11.3-2.7 6.8-2.7 15.1 0 8.2 2.7 14.9 2.6 6.5 7.4 11.3 4.8 4.8 11.5 7.3 7 2.5 15.3 2.5 5.7 0 10.8-1.6 5.1-1.6 9.4-4.3 4.4-2.8 7.8-6.4l14.5 23.1q-4.4 4.9-11.9 8.8-7.2 3.9-16.3 6.2-8.8 2.2-17.9 2.2zm98.4-.2q-11.9 0-21.3-6.2-9.2-6.4-14.7-17.4-5.5-11.1-5.5-25.1 0-14.4 5.5-25.4 5.5-11 15.1-17.2 9.6-6.3 21.8-6.3 6.7 0 12.2 1.9 5.7 2 9.9 5.5 4.3 3.4 7.3 8 3 4.4 4.4 9.5l-5.8-.7v-22.3h28.2V242h-28.8v-22.7l6.4-.2q-1.4 5-4.6 9.4-3.2 4.5-7.8 7.8-4.6 3.4-10.3 5.3-5.6 2-12 2zm7.8-23.9q6.5 0 11.3-3 4.8-3.1 7.5-8.5 2.6-5.7 2.6-13.3 0-7.7-2.6-13.1-2.7-5.7-7.5-8.7-4.8-3.2-11.3-3.2-6.4 0-11.2 3.2-4.6 3-7.2 8.7-2.7 5.4-2.7 13.1 0 7.6 2.7 13.3 2.6 5.4 7.2 8.5 4.8 3 11.2 3zm74.2 22.3v-94.1h27l.9 19.1-5.7 2.2q1.9-6.4 6.9-11.5 5.1-5.4 12.2-8.6 7.1-3.1 14.9-3.1 10.6 0 17.9 4.4 7.3 4.2 11 12.9 3.7 8.5 3.7 20.9V242h-28.5v-55.5q0-5.6-1.6-9.4-1.6-3.7-5-5.4-3.2-2-7.9-1.8-3.8 0-7 1.2-3.1 1.1-5.4 3.4-2.4 2.1-3.8 4.9-1.2 2.9-1.2 6.2V242h-28.4zm163.8 0h-22.4l-39.3-94.1h31.4l23.4 70.4-6.9.7 24.1-71.1h31zm88 1.6q-11.8 0-21.2-6.2-9.2-6.4-14.7-17.4-5.5-11.1-5.5-25.1 0-14.4 5.5-25.4 5.5-11 15-17.2 9.6-6.3 21.8-6.3 6.8 0 12.2 1.9 5.7 2 10 5.5 4.2 3.4 7.2 8 3 4.4 4.5 9.5l-5.9-.7v-22.3h28.2V242h-28.7v-22.7l6.4-.2q-1.5 5-4.6 9.4-3.2 4.5-7.8 7.8-4.6 3.4-10.3 5.4-5.7 1.9-12.1 1.9zm7.8-23.9q6.6 0 11.4-3 4.8-3 7.4-8.5 2.7-5.7 2.7-13.3 0-7.7-2.7-13.1-2.6-5.7-7.4-8.7-4.8-3.2-11.4-3.2-6.4 0-11.1 3.2-4.6 3-7.3 8.7-2.7 5.4-2.7 13.1 0 7.6 2.7 13.3 2.7 5.5 7.3 8.5 4.7 3 11.1 3zm106 24.1q-13.8 0-24.5-4.5-10.4-4.4-16.6-11.8l17.2-14.9q5.5 5.5 12.4 8.1 6.9 2.5 13.1 2.5 2.5 0 4.4-.5 2-.5 3.2-1.4 1.4-1.1 2.1-2.3.7-1.4.7-3.2 0-3.6-3.1-5.5-1.6-.9-5.4-2.1-3.7-1.3-9.5-2.9-8.4-2.1-14.6-4.9-6-3-9.9-6.9-3.5-3.8-5.5-8.2-1.9-4.6-1.9-10.3 0-6.5 3-11.9 3.2-5.3 8.3-9.2 5.3-3.9 12.1-5.8 6.9-2.1 14.1-2.1 7.8 0 14.9 1.7 7.1 1.8 13.1 5 6.2 3.2 11 7.6l-14.9 16.7q-3.1-3-7.2-5.3-3.9-2.5-8.2-3.9-4.2-1.5-7.8-1.5-2.6 0-4.8.6-1.9.3-3.3 1.4-1.4.9-2.2 2.3-.7 1.2-.7 3t.9 3.4q1.1 1.6 2.9 2.6 1.7 1.1 5.6 2.5 3.9 1.3 10.7 3.2 8.3 2.3 14.3 5.1 6 2.9 9.6 6.8 2.8 3 4.2 7.1 1.5 3.9 1.5 8.5 0 9-5.2 16.1-4.9 6.9-13.8 11-8.9 3.9-20.2 3.9z"/>
</svg>